# xmcd
#
# Track frame offsets: 
#        150
#        16186
#        33564
#        48607
#        65836
#        82521
#        98536
#        114126
#        128261
#        144823
#        163638
#
# Disc length: 2361 seconds
#
# Revision: 0
# Processed by: cddbd v1.5.2PL0 Copyright (c) Steve Scherf et al.
# Submitted via: ExactAudioCopy v1.0b3
#
DISCID=7609370b
DTITLE=Ben Montague - Overcome
DYEAR=1900
DGENRE=
TTITLE0=Can't hold me down
TTITLE1=Rainy day
TTITLE2=Overcome
TTITLE3=Yeah Yeah
TTITLE4=Weight of Love
TTITLE5=Haunted
TTITLE6=Save a little time
TTITLE7=Jennifer
TTITLE8=Broken
TTITLE9=Never enough
TTITLE10=Did you know it
EXTD=
EXTT0=
EXTT1=
EXTT2=
EXTT3=
EXTT4=
EXTT5=
EXTT6=
EXTT7=
EXTT8=
EXTT9=
EXTT10=
PLAYORDER=
